# Blender 4.0.2
# www.blender.org
mtllib untitled.mtl
o Lo_poly_Spaceship_04_by_Liz_Reddington
v -152.742432 39.972607 119.175522
v -146.193665 39.972607 119.175522
v -152.742432 46.521374 119.175522
v -146.193665 46.521374 119.175522
v -152.742432 46.521370 65.637527
v -146.193665 46.521370 65.637527
v -152.742432 39.972603 65.637527
v -146.193665 39.972603 65.637527
v -152.316238 8.435137 164.840759
v -145.173660 8.435137 164.840759
v -152.316238 15.577723 164.840759
v -145.173660 15.577723 164.840759
v -152.316238 15.577717 84.806740
v -145.173660 15.577717 84.806740
v -152.316238 8.435131 84.806740
v -145.173660 8.435131 84.806740
v -155.416061 5.335318 85.064514
v -142.073837 5.335318 85.064514
v -155.416061 18.677530 85.064514
v -142.073837 18.677530 85.064514
v -155.416061 18.677517 -111.271080
v -142.073837 18.677517 -111.271080
v -155.416061 5.335303 -111.271080
v -142.073837 5.335303 -111.271080
v -155.116257 37.598778 65.792725
v -143.819839 37.598778 65.792725
v -155.116257 48.895195 65.792725
v -143.819839 48.895195 65.792725
v -155.116257 48.895184 -110.478607
v -143.819839 48.895184 -110.478607
v -155.116257 37.598766 -110.478607
v -143.819839 37.598766 -110.478607
v 143.226257 37.598778 65.792725
v 154.522675 37.598778 65.792725
v 143.226257 48.895195 65.792725
v 154.522675 48.895195 65.792725
v 143.226257 48.895184 -110.478607
v 154.522675 48.895184 -110.478607
v 143.226257 37.598766 -110.478607
v 154.522675 37.598766 -110.478607
v 145.303177 8.435137 164.840759
v 152.445755 8.435137 164.840759
v 145.303177 15.577723 164.840759
v 152.445755 15.577723 164.840759
v 145.303177 15.577717 84.806740
v 152.445755 15.577717 84.806740
v 145.303177 8.435131 84.806740
v 152.445755 8.435131 84.806740
v 145.600082 39.972607 119.175522
v 152.148849 39.972607 119.175522
v 145.600082 46.521374 119.175522
v 152.148849 46.521374 119.175522
v 145.600082 46.521370 65.637527
v 152.148849 46.521370 65.637527
v 145.600082 39.972603 65.637527
v 152.148849 39.972603 65.637527
v -45.935165 -59.536800 73.509155
v 45.935165 -59.536800 73.509155
v -45.935165 82.842735 73.509140
v 45.935165 82.842735 73.509140
v -44.760139 87.139572 -173.194214
v 44.760139 87.139572 -173.194214
v -44.055325 0.207766 -158.257477
v 44.055325 0.207766 -158.257477
v -65.346321 18.408348 58.102226
v 65.346321 18.408348 58.102226
v -25.837164 -36.873486 202.555756
v 25.837164 -36.873486 202.555756
v 36.892471 1.083978 211.150757
v -36.892471 1.083978 211.150757
v 33.732498 62.087624 132.416992
v -33.732498 62.087624 132.416992
v -155.658615 -26.636314 54.534550
v -168.559784 -26.636314 54.534550
v -155.658615 79.530121 54.534538
v -168.559784 79.530121 54.534538
v -155.658615 79.530106 -140.291168
v -168.559784 79.530106 -140.291168
v -155.658615 -26.636330 -140.291168
v -168.559784 -26.636330 -140.291168
v -102.506454 152.788269 -13.034264
v -109.983604 152.788269 -13.034264
v -109.983604 152.788254 -103.696129
v -102.506454 152.788254 -103.696129
v -102.506454 -99.894485 -103.696106
v -109.983604 -99.894485 -103.696106
v -109.983604 -99.894478 -13.034245
v -102.506454 -99.894478 -13.034245
v -48.832966 31.720217 -25.263712
v -156.666840 74.960060 -12.970510
v -48.832966 43.236729 -25.263714
v -156.666840 80.298592 -12.970510
v -48.832966 43.888935 -124.060562
v -156.666840 80.030731 -50.016609
v -48.832966 32.372425 -124.060562
v -156.666840 74.692207 -50.016605
v -48.832966 31.720217 -25.263712
v -156.666840 -27.735426 -12.970502
v -48.832966 43.236729 -25.263714
v -156.666840 -22.396898 -12.970502
v -48.832966 43.888935 -124.060562
v -156.666840 -22.664753 -50.016602
v -48.832966 32.372425 -124.060562
v -156.666840 -28.003284 -50.016598
v 155.658615 -26.636314 54.534550
v 168.559784 -26.636314 54.534550
v 155.658615 79.530121 54.534538
v 168.559784 79.530121 54.534538
v 155.658615 79.530106 -140.291168
v 168.559784 79.530106 -140.291168
v 155.658615 -26.636330 -140.291168
v 168.559784 -26.636330 -140.291168
v 102.506454 152.788269 -13.034264
v 109.983604 152.788269 -13.034264
v 109.983604 152.788254 -103.696129
v 102.506454 152.788254 -103.696129
v 102.506454 -99.894485 -103.696106
v 109.983604 -99.894485 -103.696106
v 109.983604 -99.894478 -13.034245
v 102.506454 -99.894478 -13.034245
v 48.832966 31.720217 -25.263712
v 156.666840 74.960060 -12.970510
v 48.832966 43.236729 -25.263714
v 156.666840 80.298592 -12.970510
v 48.832966 43.888935 -124.060562
v 156.666840 80.030731 -50.016609
v 48.832966 32.372425 -124.060562
v 156.666840 74.692207 -50.016605
v 48.832966 31.720217 -25.263712
v 156.666840 -27.735426 -12.970502
v 48.832966 43.236729 -25.263714
v 156.666840 -22.396898 -12.970502
v 48.832966 43.888935 -124.060562
v 156.666840 -22.664753 -50.016602
v 48.832966 32.372425 -124.060562
v 156.666840 -28.003284 -50.016598
v -26.972822 14.161819 -158.701324
v 26.972822 14.161819 -158.701324
v -26.972822 68.107460 -158.701324
v 26.972822 68.107460 -158.701324
v -35.958889 77.093529 -211.150757
v 35.958889 77.093529 -211.150757
v -35.958889 5.175750 -211.150757
v 35.958889 5.175750 -211.150757
v -24.571909 65.706543 -211.150757
v 24.571909 65.706543 -211.150757
v 24.571909 16.562733 -211.150757
v -24.571909 16.562733 -211.150757
v -16.708899 57.843536 -197.694580
v 16.708899 57.843536 -197.694580
v 16.708899 24.425747 -197.694580
v -16.708899 24.425747 -197.694580
v 142.203354 5.335318 85.064514
v 155.545578 5.335318 85.064514
v 142.203354 18.677530 85.064514
v 155.545578 18.677530 85.064514
v 142.203354 18.677517 -111.271080
v 155.545578 18.677517 -111.271080
v 142.203354 5.335303 -111.271080
v 155.545578 5.335303 -111.271080
v 102.506454 -99.894478 -13.893449
v 155.658615 -26.636320 -34.070431
v 155.658615 79.530106 -72.162766
v 103.168465 151.875824 -104.151917
v 168.559784 -26.636320 -27.866402
v 168.559784 79.530106 -65.958733
v -168.559784 -26.636322 -50.246429
v -168.559784 79.530106 -88.338562
v -155.658615 -26.636322 -46.070915
v -155.658615 79.530106 -84.163254
vn -0.0000 -0.0000 1.0000
vn -0.0000 1.0000 -0.0000
vn -0.0000 -1.0000 -0.0000
vn 1.0000 -0.0000 -0.0000
vn -1.0000 -0.0000 -0.0000
vn -0.0000 -0.0000 -1.0000
vn -0.0000 0.7905 0.6125
vn -0.0000 0.9998 0.0174
vn -0.0000 -0.9683 -0.2496
vn 0.9575 0.2883 0.0005
vn -0.9575 0.2883 0.0005
vn -0.0000 -0.1693 -0.9856
vn -0.9870 -0.1362 -0.0857
vn -0.0000 -0.2208 0.9753
vn 0.9870 -0.1362 -0.0857
vn -0.0000 -0.9849 0.1730
vn 0.9556 -0.2413 0.1690
vn -0.9556 -0.2413 0.1690
vn 0.9377 0.2177 0.2709
vn -0.0000 0.9432 0.3323
vn -0.9256 0.3162 0.2079
vn 0.9256 0.3162 0.2079
vn -0.9377 0.2177 0.2709
vn -0.0000 0.6780 0.7351
vn -0.7810 0.6245 -0.0000
vn -0.0000 0.4469 -0.8946
vn 0.8094 -0.5873 -0.0000
vn -0.0000 -0.4469 -0.8946
vn -0.7810 -0.6245 -0.0000
vn -0.0000 -0.6780 0.7351
vn 0.8094 0.5873 -0.0000
vn 0.1133 -0.0000 0.9936
vn 0.3224 0.9466 0.0027
vn -0.5661 -0.0000 -0.8244
vn -0.3697 -0.9292 -0.0027
vn -0.5219 0.8530 0.0024
vn 0.4849 -0.8745 -0.0025
vn 0.7810 0.6245 -0.0000
vn -0.8094 -0.5873 -0.0000
vn 0.7810 -0.6245 -0.0000
vn -0.8094 0.5873 -0.0000
vn -0.1133 -0.0000 0.9936
vn -0.3224 0.9466 0.0027
vn 0.5661 -0.0000 -0.8244
vn 0.3697 -0.9292 -0.0027
vn 0.5219 0.8530 0.0024
vn -0.4849 -0.8745 -0.0025
vn -0.0000 0.9856 0.1689
vn -0.0000 -0.9856 0.1689
vn 0.9856 -0.0000 0.1689
vn -0.9856 -0.0000 0.1689
vn -0.0000 -0.8634 -0.5045
vn -0.8634 -0.0000 -0.5045
vn -0.0000 0.8634 -0.5045
vn 0.8634 -0.0000 -0.5045
vn -0.3697 -0.9292 -0.0026
vn 0.3697 -0.9292 -0.0026
vn -0.8094 -0.5872 -0.0000
vt 0.625000 0.000000
vt 0.375000 0.250000
vt 0.375000 0.000000
vt 0.625000 0.250000
vt 0.375000 0.500000
vt 0.625000 0.750000
vt 0.375000 1.000000
vt 0.375000 0.750000
vt 0.875000 0.000000
vt 0.125000 0.250000
vt 0.125000 0.000000
vt 0.625000 0.500000
vt 0.625000 0.125000
vt 0.375000 0.125000
vt 0.875000 0.187500
vt 0.125000 0.187500
vt 0.625000 0.625000
vt 0.375000 0.625000
vt 0.808335 0.250000
vt 0.759455 0.000000
vt 0.245903 0.000000
vt 0.625000 0.433334
vt 0.375000 0.427977
vt 0.625000 0.865545
vt 0.625000 1.000000
vt 0.375000 0.870903
vt 0.375000 0.997631
vt 0.730737 0.000000
vt 0.212422 0.250000
vt 0.625000 0.404617
vt 0.375000 0.412578
vt 0.625000 0.894263
vt 0.375000 0.886302
vt 0.261302 0.000000
vt 0.779617 0.250000
vt 0.875000 0.250000
vt 0.197023 0.250000
s 0
usemtl lambert4SG
f 2/1/1 3/2/1 1/3/1
f 4/4/2 5/5/2 3/2/2
f 8/6/3 1/7/3 7/8/3
f 8/9/4 4/4/4 2/1/4
f 1/3/5 5/10/5 7/11/5
f 10/1/1 11/2/1 9/3/1
f 12/4/2 13/5/2 11/2/2
f 16/6/3 9/7/3 15/8/3
f 16/9/4 12/4/4 10/1/4
f 9/3/5 13/10/5 15/11/5
f 18/1/1 19/2/1 17/3/1
f 20/4/2 21/5/2 19/2/2
f 22/12/6 23/8/6 21/5/6
f 24/6/3 17/7/3 23/8/3
f 24/9/4 20/4/4 18/1/4
f 17/3/5 21/10/5 23/11/5
f 26/1/1 27/2/1 25/3/1
f 28/4/2 29/5/2 27/2/2
f 30/12/6 31/8/6 29/5/6
f 32/6/3 25/7/3 31/8/3
f 32/9/4 28/4/4 26/1/4
f 25/3/5 29/10/5 31/11/5
f 34/1/1 35/2/1 33/3/1
f 36/4/2 37/5/2 35/2/2
f 38/12/6 39/8/6 37/5/6
f 40/6/3 33/7/3 39/8/3
f 40/9/4 36/4/4 34/1/4
f 33/3/5 37/10/5 39/11/5
f 42/1/1 43/2/1 41/3/1
f 44/4/2 45/5/2 43/2/2
f 48/6/3 41/7/3 47/8/3
f 48/9/4 44/4/4 42/1/4
f 41/3/5 45/10/5 47/11/5
f 50/1/1 51/2/1 49/3/1
f 52/4/2 53/5/2 51/2/2
f 56/6/3 49/7/3 55/8/3
f 56/9/4 52/4/4 50/1/4
f 49/3/5 53/10/5 55/11/5
f 69/13/7 72/2/7 70/14/7
f 66/13/19 60/4/19 71/4/19
f 59/2/20 71/4/20 60/4/20
f 72/2/21 65/14/21 70/14/21
f 66/13/22 71/4/22 69/13/22
f 59/2/23 65/14/23 72/2/23
f 150/12/6 152/8/6 149/5/6
f 154/1/1 155/2/1 153/3/1
f 156/4/2 157/5/2 155/2/2
f 158/12/6 159/8/6 157/5/6
f 160/6/3 153/7/3 159/8/3
f 160/9/4 156/4/4 154/1/4
f 153/3/5 157/10/5 159/11/5
f 2/1/1 4/4/1 3/2/1
f 4/4/2 6/12/2 5/5/2
f 8/6/3 2/25/3 1/7/3
f 8/9/4 6/36/4 4/4/4
f 1/3/5 3/2/5 5/10/5
f 10/1/1 12/4/1 11/2/1
f 12/4/2 14/12/2 13/5/2
f 16/6/3 10/25/3 9/7/3
f 16/9/4 14/36/4 12/4/4
f 9/3/5 11/2/5 13/10/5
f 18/1/1 20/4/1 19/2/1
f 20/4/2 22/12/2 21/5/2
f 22/12/6 24/6/6 23/8/6
f 24/6/3 18/25/3 17/7/3
f 24/9/4 22/36/4 20/4/4
f 17/3/5 19/2/5 21/10/5
f 26/1/1 28/4/1 27/2/1
f 28/4/2 30/12/2 29/5/2
f 30/12/6 32/6/6 31/8/6
f 32/6/3 26/25/3 25/7/3
f 32/9/4 30/36/4 28/4/4
f 25/3/5 27/2/5 29/10/5
f 34/1/1 36/4/1 35/2/1
f 36/4/2 38/12/2 37/5/2
f 38/12/6 40/6/6 39/8/6
f 40/6/3 34/25/3 33/7/3
f 40/9/4 38/36/4 36/4/4
f 33/3/5 35/2/5 37/10/5
f 42/1/1 44/4/1 43/2/1
f 44/4/2 46/12/2 45/5/2
f 48/6/3 42/25/3 41/7/3
f 48/9/4 46/36/4 44/4/4
f 41/3/5 43/2/5 45/10/5
f 50/1/1 52/4/1 51/2/1
f 52/4/2 54/12/2 53/5/2
f 56/6/3 50/25/3 49/7/3
f 56/9/4 54/36/4 52/4/4
f 49/3/5 51/2/5 53/10/5
f 69/13/7 71/4/7 72/2/7
f 59/2/20 72/2/20 71/4/20
f 150/12/6 151/6/6 152/8/
f 154/1/1 156/4/1 155/2/1
f 156/4/2 158/12/2 157/5/2
f 158/12/6 160/6/6 159/8/6
f 160/6/3 154/25/3 153/7/3
f 160/9/4 158/36/4 156/4/4
f 153/3/5 155/2/5 157/10/5
usemtl lambert4SG
f 60/4/8 61/5/8 59/2/8
f 66/13/10 62/15/10 60/4/10
f 61/16/11 65/14/11 59/2/11
f 79/8/6 78/12/6 77/5/6
f 88/7/3 86/6/3 85/8/3
s 1
f 168/19/5 80/9/5 167/20/5
f 168/22/25 83/12/25 78/12/25
s 0
f 83/12/26 77/5/26 78/12/26
f 79/8/28 86/6/28 80/6/28
s 1
f 86/6/29 167/24/29 80/6/29
s 0
f 110/12/6 111/8/6 109/5/6
s 1
f 118/6/3 161/27/3 117/8/3
f 111/11/5 163/29/5 109/10/5
f 109/5/26 115/12/26 110/12/26
f 109/5/39 163/31/39 164/5/39
s 0
f 111/8/28 118/6/28 117/8/28
s 1
f 162/33/41 117/8/41 161/27/41
f 165/32/40 118/6/40 112/6/40
f 166/35/4 112/9/4 110/36/4
f 115/12/38 166/30/38 110/12/38
f 169/26/31 85/8/31 79/8/31
f 79/11/4 170/37/4 169/21/4
f 77/5/27 84/5/27 170/23/27
s 0
f 60/4/8 62/12/8 61/5/8
f 79/8/6 80/6/6 78/12/6
f 88/7/3 87/25/3 86/6/3
s 1
f 168/19/5 78/36/5 80/9/5
s 0
f 83/12/26 84/5/26 77/5/26
f 79/8/28 85/8/28 86/6/28
s 1
f 86/6/29 87/25/29 167/24/29
s 0
f 110/12/6 112/6/6 111/8/6
s 1
f 118/6/3 119/25/3 161/27/3
f 111/11/5 162/34/5 163/29/5
f 109/5/26 164/5/26 115/12/26
s 0
f 111/8/28 112/6/28 118/6/28
s 1
f 162/33/41 111/8/41 117/8/41
f 165/32/40 119/25/40 118/6/40
f 166/35/4 165/28/4 112/9/4
f 169/26/31 88/7/31 85/8/31
f 79/11/4 77/10/4 170/37/4
s 0
usemtl lambert4SG
f 64/6/9 57/7/9 63/8/9
f 62/17/12 63/8/12 61/18/12
f 63/11/13 65/14/13 61/16/13
f 68/1/14 70/14/14 67/3/14
f 64/9/15 66/13/15 58/1/15
f 58/1/16 67/3/16 57/3/16
f 58/1/17 69/13/17 68/1/17
f 57/3/18 70/14/18 65/14/18
f 75/2/1 74/1/1 73/3/1
f 84/5/2 82/4/2 81/2/2
s 1
f 169/21/4 75/2/4 73/3/4
s 0
f 75/2/24 82/4/24 76/4/24
s 1
f 170/23/27 81/2/27 75/2/27
s 0
f 87/25/30 73/7/30 74/25/30
s 1
f 73/7/31 88/7/31 169/26/31
s 0
f 91/2/32 90/1/32 89/3/32
f 91/2/33 94/12/33 92/4/33
f 93/5/34 96/6/34 94/12/34
f 89/7/35 96/6/35 95/8/35
f 97/3/32 100/4/32 98/1/32
f 99/2/36 102/12/36 100/4/36
f 103/8/34 102/12/34 101/5/34
f 97/7/37 104/6/37 103/8/37
f 106/1/1 107/2/1 105/3/1
f 114/4/2 116/5/2 113/2/2
s 1
f 165/28/4 108/4/4 106/1/4
s 0
f 107/2/24 114/4/24 113/2/24
s 1
f 166/30/38 114/4/38 108/4/38
f 119/25/40 165/32/40 106/25/40
s 0
f 105/7/30 119/25/30 106/25/30
f 122/1/42 123/2/42 121/3/42
f 123/2/43 126/12/43 125/5/43
f 125/5/44 128/6/44 127/8/44
f 128/6/45 121/7/45 127/8/45
f 129/3/42 132/4/42 131/2/42
f 131/2/46 134/12/46 133/5/46
f 134/12/44 135/8/44 133/5/44
f 136/6/47 129/7/47 135/8/47
f 138/1/1 139/2/1 137/3/1
f 140/4/48 141/5/48 139/2/48
f 144/6/49 137/7/49 143/8/49
f 144/9/50 140/4/50 138/1/50
f 137/3/51 141/10/51 143/11/51
s 1
f 142/12/6 145/5/6 141/5/6
f 144/6/6 146/12/6 142/12/6
f 143/8/6 147/6/6 144/6/6
f 143/8/6 145/5/6 148/8/6
s 0
f 145/5/52 150/12/52 149/5/52
f 146/12/53 151/6/53 150/12/53
f 148/8/54 151/6/54 147/6/54
f 145/5/55 152/8/55 148/8/55
s 1
f 161/27/3 119/25/3 120/7/3
f 162/33/41 120/7/41 105/7/41
f 162/34/5 107/2/5 163/29/5
f 163/31/39 107/2/39 113/2/39
f 115/12/26 164/5/26 116/5/26
f 167/24/29 87/25/29 74/25/29
f 76/4/5 167/20/5 74/1/5
f 82/4/25 168/22/25 76/4/25
s 0
f 64/6/9 58/25/9 57/7/9
f 62/17/12 64/6/12 63/8/12
f 63/11/13 57/3/13 65/14/13
f 68/1/14 69/13/14 70/14/14
f 64/9/15 62/15/15 66/13/15
f 58/1/16 68/1/16 67/3/16
f 58/1/17 66/13/17 69/13/17
f 57/3/18 67/3/18 70/14/18
f 75/2/1 76/4/1 74/1/1
f 84/5/2 83/12/2 82/4/2
s 1
f 169/21/4 170/37/4 75/2/4
s 0
f 75/2/24 81/2/24 82/4/24
s 1
f 170/23/27 84/5/27 81/2/27
s 0
f 87/25/30 88/7/30 73/7/30
f 91/2/32 92/4/32 90/1/32
f 91/2/33 93/5/33 94/12/33
f 93/5/34 95/8/34 96/6/34
f 89/7/56 90/25/56 96/6/56
f 97/3/32 99/2/32 100/4/32
f 99/2/36 101/5/36 102/12/36
f 103/8/34 104/6/34 102/12/34
f 97/7/37 98/25/37 104/6/37
f 106/1/1 108/4/1 107/2/1
f 114/4/2 115/12/2 116/5/2
s 1
f 165/28/4 166/35/4 108/4/4
s 0
f 107/2/24 108/4/24 114/4/24
s 1
f 166/30/38 115/12/38 114/4/38
s 0
f 105/7/30 120/7/30 119/25/30
f 122/1/42 124/4/42 123/2/42
f 123/2/43 124/4/43 126/12/43
f 125/5/44 126/12/44 128/6/44
f 128/6/57 122/25/57 121/7/57
f 129/3/42 130/1/42 132/4/42
f 131/2/46 132/4/46 134/12/46
f 134/12/44 136/6/44 135/8/44
f 136/6/47 130/25/47 129/7/47
f 138/1/1 140/4/1 139/2/1
f 140/4/48 142/12/48 141/5/48
f 144/6/49 138/25/49 137/7/49
f 144/9/50 142/36/50 140/4/50
f 137/3/51 139/2/51 141/10/51
s 1
f 142/12/6 146/12/6 145/5/6
f 144/6/6 147/6/6 146/12/6
f 143/8/6 148/8/6 147/6/6
f 143/8/6 141/5/6 145/5/6
s 0
f 145/5/52 146/12/52 150/12/52
f 146/12/53 147/6/53 151/6/53
f 148/8/54 152/8/54 151/6/54
f 145/5/55 149/5/55 152/8/55
s 1
f 162/33/41 161/27/41 120/7/41
f 162/34/5 105/3/5 107/2/5
f 116/5/58 164/5/39 113/2/39
f 164/5/39 163/31/39 113/2/39
f 76/4/5 168/19/5 167/20/5
f 82/4/25 83/12/25 168/22/25
